<svg id="Layer_1" data-name="Layer 1" xmlns="http://www.w3.org/2000/svg" viewBox="0 0 22 22"><defs><style>.cls-1{fill:#ccd6f6;}</style></defs><path class="cls-1" d="M5.26,12,3,13.58V10.42ZM21,13.58,18.74,12,21,10.42Zm-4-.36,3.21,2.25L13,20.16V16ZM8.74,12,12,9.72,15.26,12,12,14.28ZM3.79,15.47,7,13.22,11,16v4.14Zm8.77-14.3a1,1,0,0,0-1.12,0l-10,6.48a1,1,0,0,0-.29.28A1,1,0,0,0,1,8.51v7a1,1,0,0,0,.15.53.7.7,0,0,0,.15.19.7.7,0,0,0,.16.13h0l10,6.48a1,1,0,0,0,1.12,0l10-6.48a1,1,0,0,0,.29-.28,1,1,0,0,0,.18-.58v-7A1,1,0,0,0,22.85,8a1,1,0,0,0-.31-.32h0ZM13,8V3.84l7.21,4.69L17,10.78ZM11,3.84V8l-4,2.8L3.79,8.53Z" transform="translate(-1 -1)"/></svg>