<svg id="Layer_1" data-name="Layer 1" xmlns="http://www.w3.org/2000/svg" viewBox="0 0 21.5 23.03"><defs><style>.cls-1{fill:none;stroke:#ccd6f6;stroke-linecap:round;stroke-linejoin:round;stroke-width:2px;}</style></defs><path class="cls-1" d="M9,19c-5,1.5-5-2.5-7-3m14,6V18.13a3.37,3.37,0,0,0-.94-2.61c3.14-.35,6.44-1.54,6.44-7A5.44,5.44,0,0,0,20,4.77,5.07,5.07,0,0,0,19.91,1S18.73.65,16,2.48a13.4,13.4,0,0,0-7,0C6.27.65,5.09,1,5.09,1A5.07,5.07,0,0,0,5,4.77,5.42,5.42,0,0,0,3.5,8.55c0,5.42,3.3,6.61,6.44,7A3.35,3.35,0,0,0,9,18.13V22" transform="translate(-1 0.03)"/></svg>