<svg id="Layer_1" data-name="Layer 1" xmlns="http://www.w3.org/2000/svg" viewBox="0 0 22 21"><defs><style>.cls-1{fill:#ccd6f6;}</style></defs><path class="cls-1" d="M16,7a7,7,0,0,0-7,7v7a1,1,0,0,0,1,1h4a1,1,0,0,0,1-1V14a1,1,0,1,1,2,0v7a1,1,0,0,0,1,1h4a1,1,0,0,0,1-1V14a7,7,0,0,0-7-7Zm0,2a5,5,0,0,1,5,5v6H19V14a3,3,0,0,0-6,0v6H11V14a5,5,0,0,1,5-5ZM2,8A1,1,0,0,0,1,9V21a1,1,0,0,0,1,1H6a1,1,0,0,0,1-1V9A1,1,0,0,0,6,8Zm1,2H5V20H3ZM7,4a3,3,0,1,0-.88,2.12A3,3,0,0,0,7,4ZM5,4a1,1,0,0,1-.29.71A1,1,0,0,1,4,5a1,1,0,0,1-.71-.29A1,1,0,0,1,3,4,1,1,0,0,1,4,3a1,1,0,0,1,.71.29A1,1,0,0,1,5,4Z" transform="translate(-1 -1)"/></svg>