<svg id="Layer_1" data-name="Layer 1" xmlns="http://www.w3.org/2000/svg" viewBox="0 0 24 19.94"><defs><style>.cls-1{fill:#f4cc21;}</style></defs><path class="cls-1" d="M20.83,5.26a6.64,6.64,0,0,1-.61.7,1,1,0,0,0-.28.91A3,3,0,0,1,20,7.5c0,5.26-2.43,9-5.81,10.9A12.43,12.43,0,0,1,5,19.52a12.64,12.64,0,0,0,3.59-1.69,1,1,0,0,0,.35-.42,1,1,0,0,0-.5-1.32,8.34,8.34,0,0,1-4.77-4.6,8.2,8.2,0,0,1-.52-3.22,11.49,11.49,0,0,1,.27-2.19c.4.35.81.71,1.24,1A11.57,11.57,0,0,0,12,9.53a1,1,0,0,0,1-1v-1A4.58,4.58,0,0,1,13,7,3.53,3.53,0,0,1,14.2,4.84a3.49,3.49,0,0,1,4.91.35,1,1,0,0,0,1,.3c.23-.07.46-.14.69-.23Zm1.59-3.08a9.68,9.68,0,0,1-2.28,1.21,5.49,5.49,0,0,0-9.09,3.32,7,7,0,0,0-.05.8,9.67,9.67,0,0,1-5.15-2,9.73,9.73,0,0,1-2-2.12,1,1,0,0,0-1.4-.24,1,1,0,0,0-.33.41,7.42,7.42,0,0,0-.29.76c-.11.34-.24.78-.36,1.29a13.14,13.14,0,0,0-.32,2.57,10.43,10.43,0,0,0,.65,4A9.73,9.73,0,0,0,5.92,17,10.51,10.51,0,0,1,1,18a1,1,0,0,0-.53,1.87,14.91,14.91,0,0,0,14.67.26c4-2.3,6.82-6.7,6.82-12.63,0-.17,0-.33,0-.49a8.66,8.66,0,0,0,2-3.78A1,1,0,0,0,23.23,2a1,1,0,0,0-.81.15Z" transform="translate(0 -1.99)"/></svg>